<svg width="31" height="13" viewBox="0 0 31 13" fill="none" xmlns="http://www.w3.org/2000/svg">
<rect width="31" height="13" rx="4" fill="#DFB5EE"/>
<path d="M4.92472 10V2.36364H7.59446C8.12642 2.36364 8.56516 2.45561 8.91069 2.63956C9.25621 2.82102 9.51349 3.06587 9.68253 3.37411C9.85156 3.67986 9.93608 4.01918 9.93608 4.39205C9.93608 4.72017 9.87766 4.99112 9.76083 5.2049C9.64648 5.41868 9.49485 5.58771 9.30593 5.712C9.1195 5.83629 8.9169 5.92827 8.69815 5.98793V6.0625C8.93182 6.07741 9.16673 6.15945 9.40288 6.30859C9.63903 6.45774 9.83665 6.67152 9.99574 6.94993C10.1548 7.22834 10.2344 7.56889 10.2344 7.97159C10.2344 8.3544 10.1474 8.69869 9.97337 9.00444C9.79936 9.31019 9.52468 9.55256 9.14933 9.73153C8.77397 9.91051 8.28551 10 7.68395 10H4.92472ZM5.84943 9.17969H7.68395C8.288 9.17969 8.7168 9.06286 8.97035 8.82919C9.22639 8.59304 9.3544 8.30717 9.3544 7.97159C9.3544 7.71307 9.28853 7.47443 9.15678 7.25568C9.02504 7.03445 8.83736 6.85795 8.59375 6.72621C8.35014 6.59197 8.06179 6.52486 7.72869 6.52486H5.84943V9.17969ZM5.84943 5.71946H7.56463C7.84304 5.71946 8.09411 5.66477 8.31783 5.5554C8.54403 5.44602 8.72301 5.2919 8.85476 5.09304C8.98899 4.89418 9.05611 4.66051 9.05611 4.39205C9.05611 4.05646 8.93928 3.77184 8.70561 3.53817C8.47195 3.30202 8.10156 3.18395 7.59446 3.18395H5.84943V5.71946ZM14.0358 10.1193C13.4839 10.1193 13.0079 9.99751 12.6077 9.75391C12.21 9.50781 11.903 9.16477 11.6867 8.72479C11.4729 8.28232 11.366 7.76776 11.366 7.18111C11.366 6.59446 11.4729 6.07741 11.6867 5.62997C11.903 5.18004 12.2037 4.82955 12.589 4.57848C12.9768 4.32493 13.4292 4.19815 13.9463 4.19815C14.2446 4.19815 14.5392 4.24787 14.83 4.3473C15.1208 4.44673 15.3856 4.60831 15.6242 4.83203C15.8628 5.05327 16.053 5.34659 16.1947 5.712C16.3364 6.07741 16.4072 6.52734 16.4072 7.06179V7.43466H11.9925V6.67401H15.5123C15.5123 6.35085 15.4477 6.0625 15.3184 5.80895C15.1917 5.5554 15.0102 5.35529 14.7741 5.20863C14.5404 5.06197 14.2645 4.98864 13.9463 4.98864C13.5958 4.98864 13.2925 5.07564 13.0365 5.24964C12.7829 5.42116 12.5878 5.64489 12.4511 5.92081C12.3144 6.19673 12.246 6.49254 12.246 6.80824V7.31534C12.246 7.74787 12.3206 8.11452 12.4697 8.41531C12.6214 8.7136 12.8314 8.94105 13.0999 9.09766C13.3683 9.25178 13.6803 9.32884 14.0358 9.32884C14.267 9.32884 14.4758 9.29652 14.6622 9.23189C14.8511 9.16477 15.0139 9.06534 15.1507 8.93359C15.2874 8.79936 15.393 8.63281 15.4676 8.43395L16.3177 8.67259C16.2282 8.96094 16.0779 9.21449 15.8666 9.43324C15.6553 9.6495 15.3943 9.81854 15.0835 9.94034C14.7728 10.0597 14.4236 10.1193 14.0358 10.1193ZM20.2366 4.27273V5.01847H17.2686V4.27273H20.2366ZM18.1336 2.90057H19.0136V8.35938C19.0136 8.60795 19.0496 8.79439 19.1217 8.91868C19.1963 9.04048 19.2907 9.12251 19.4051 9.16477C19.5219 9.20455 19.645 9.22443 19.7742 9.22443C19.8712 9.22443 19.9507 9.21946 20.0129 9.20952C20.075 9.19709 20.1247 9.18714 20.162 9.17969L20.341 9.97017C20.2813 9.99254 20.1981 10.0149 20.0912 10.0373C19.9843 10.0621 19.8488 10.0746 19.6847 10.0746C19.4362 10.0746 19.1926 10.0211 18.9539 9.91424C18.7178 9.80735 18.5214 9.64453 18.3648 9.42578C18.2107 9.20703 18.1336 8.93111 18.1336 8.59801V2.90057ZM23.2456 10.1342C22.8827 10.1342 22.5534 10.0659 22.2575 9.92915C21.9617 9.78995 21.7268 9.58984 21.5528 9.32884C21.3788 9.06534 21.2918 8.74716 21.2918 8.37429C21.2918 8.04616 21.3564 7.78018 21.4857 7.57635C21.615 7.37003 21.7877 7.20845 22.004 7.09162C22.2203 6.97479 22.4589 6.88778 22.7199 6.83061C22.9834 6.77095 23.2481 6.72372 23.5141 6.68892C23.8621 6.64418 24.1443 6.61062 24.3605 6.58825C24.5793 6.56339 24.7384 6.52237 24.8378 6.4652C24.9397 6.40803 24.9907 6.30859 24.9907 6.1669V6.13707C24.9907 5.76918 24.89 5.48331 24.6887 5.27947C24.4898 5.07564 24.1878 4.97372 23.7826 4.97372C23.3625 4.97372 23.0331 5.0657 22.7945 5.24964C22.5558 5.43359 22.3881 5.62997 22.2911 5.83878L21.4559 5.54048C21.605 5.19247 21.8039 4.92152 22.0525 4.72763C22.3035 4.53125 22.577 4.39453 22.8728 4.31747C23.1711 4.23793 23.4644 4.19815 23.7528 4.19815C23.9367 4.19815 24.148 4.22053 24.3866 4.26527C24.6278 4.30753 24.8602 4.39577 25.0839 4.53001C25.3101 4.66424 25.4978 4.86683 25.6469 5.13778C25.7961 5.40874 25.8707 5.77166 25.8707 6.22656V10H24.9907V9.22443H24.9459C24.8863 9.34872 24.7868 9.48171 24.6476 9.6234C24.5084 9.76509 24.3232 9.88565 24.0921 9.98509C23.8609 10.0845 23.5787 10.1342 23.2456 10.1342ZM23.3799 9.34375C23.7279 9.34375 24.0212 9.27539 24.2599 9.13867C24.501 9.00195 24.6824 8.82546 24.8042 8.6092C24.9285 8.39293 24.9907 8.16548 24.9907 7.92685V7.12145C24.9534 7.16619 24.8714 7.20721 24.7446 7.2445C24.6203 7.2793 24.4761 7.31037 24.3121 7.33771C24.1505 7.36257 23.9926 7.38494 23.8385 7.40483C23.6869 7.42223 23.5638 7.43714 23.4694 7.44957C23.2407 7.4794 23.0269 7.52788 22.828 7.59499C22.6317 7.65962 22.4726 7.75781 22.3508 7.88956C22.2314 8.01882 22.1718 8.19531 22.1718 8.41903C22.1718 8.72479 22.2849 8.95597 22.5111 9.11257C22.7398 9.26669 23.0294 9.34375 23.3799 9.34375Z" fill="#191919"/>
</svg>
