<svg width="8" height="6" viewBox="0 0 8 6" fill="none" xmlns="http://www.w3.org/2000/svg">
<path d="M2.86596 5.69993C2.80348 5.69993 2.74294 5.68782 2.68436 5.6636C2.62578 5.63939 2.56915 5.59903 2.51447 5.54253L0.534388 3.49634C0.440656 3.39948 0.395743 3.27638 0.399648 3.12706C0.403554 2.97773 0.452372 2.85464 0.546104 2.75777C0.639836 2.66091 0.757 2.61248 0.897598 2.61248C1.0382 2.61248 1.15536 2.66091 1.24909 2.75777L2.8894 4.45284L6.76755 0.445218C6.86128 0.348357 6.97649 0.299927 7.11318 0.299927C7.24987 0.299927 7.36509 0.348357 7.45882 0.445218C7.55255 0.542079 7.59941 0.661137 7.59941 0.802393C7.59941 0.943649 7.55255 1.06271 7.45882 1.15957L3.21746 5.54253C3.16278 5.59903 3.10615 5.63939 3.04757 5.6636C2.98899 5.68782 2.92845 5.69993 2.86596 5.69993Z" fill="#232323"/>
</svg>
