<svg width="24" height="24" viewBox="0 0 24 24" fill="none" xmlns="http://www.w3.org/2000/svg">
<rect width="24" height="24" rx="12" fill="white"/>
<path d="M15.9 13.95H14.6V15.25H15.9M15.9 11.35H14.6V12.65H15.9M17.2 16.55H12V15.25H13.3V13.95H12V12.65H13.3V11.35H12V10.05H17.2M10.7 8.74999H9.4V7.44999H10.7M10.7 11.35H9.4V10.05H10.7M10.7 13.95H9.4V12.65H10.7M10.7 16.55H9.4V15.25H10.7M8.1 8.74999H6.8V7.44999H8.1M8.1 11.35H6.8V10.05H8.1M8.1 13.95H6.8V12.65H8.1M8.1 16.55H6.8V15.25H8.1M12 8.74999V6.14999H5.5V17.85H18.5V8.74999H12Z" fill="black"/>
</svg>
